<svg width="51" height="48" viewBox="0 0 51 48" fill="none" xmlns="http://www.w3.org/2000/svg">
<path fill-rule="evenodd" clip-rule="evenodd" d="M4.78125 12C4.78125 11.6022 4.94916 11.2206 5.24805 10.9393C5.54693 10.658 5.95231 10.5 6.375 10.5H44.625C45.0477 10.5 45.4531 10.658 45.752 10.9393C46.0508 11.2206 46.2188 11.6022 46.2188 12C46.2188 12.3978 46.0508 12.7794 45.752 13.0607C45.4531 13.342 45.0477 13.5 44.625 13.5H6.375C5.95231 13.5 5.54693 13.342 5.24805 13.0607C4.94916 12.7794 4.78125 12.3978 4.78125 12ZM4.78125 20C4.78125 19.6022 4.94916 19.2206 5.24805 18.9393C5.54693 18.658 5.95231 18.5 6.375 18.5H44.625C45.0477 18.5 45.4531 18.658 45.752 18.9393C46.0508 19.2206 46.2188 19.6022 46.2188 20C46.2188 20.3978 46.0508 20.7794 45.752 21.0607C45.4531 21.342 45.0477 21.5 44.625 21.5H6.375C5.95231 21.5 5.54693 21.342 5.24805 21.0607C4.94916 20.7794 4.78125 20.3978 4.78125 20ZM43.4796 25.818C43.8125 26.0627 44.0285 26.4217 44.0803 26.8162C44.1321 27.2107 44.0154 27.6084 43.7559 27.922L35.4684 37.922C35.3223 38.098 35.1363 38.241 34.924 38.3407C34.7117 38.4404 34.4784 38.4943 34.2412 38.4983C34.004 38.5023 33.7688 38.4564 33.5528 38.364C33.3368 38.2716 33.1455 38.1349 32.9928 37.964L28.5302 32.964C28.3869 32.8144 28.2771 32.6392 28.2073 32.4487C28.1375 32.2583 28.1091 32.0566 28.1239 31.8557C28.1387 31.6547 28.1964 31.4586 28.2935 31.2791C28.3906 31.0996 28.5251 30.9403 28.689 30.8108C28.8529 30.6812 29.0428 30.5841 29.2475 30.5251C29.4521 30.4662 29.6673 30.4466 29.8802 30.4677C30.093 30.4887 30.2992 30.5498 30.4864 30.6475C30.6736 30.7451 30.838 30.8773 30.9698 31.036L34.1657 34.616L41.242 26.076C41.3707 25.9206 41.5308 25.7906 41.7129 25.6934C41.8951 25.5962 42.0958 25.5338 42.3036 25.5096C42.5114 25.4855 42.7222 25.5001 42.924 25.5527C43.1258 25.6053 43.3146 25.6947 43.4796 25.816M4.78125 28C4.78125 27.6022 4.94916 27.2206 5.24805 26.9393C5.54693 26.658 5.95231 26.5 6.375 26.5H21.25C21.6727 26.5 22.0781 26.658 22.377 26.9393C22.6758 27.2206 22.8438 27.6022 22.8438 28C22.8438 28.3978 22.6758 28.7794 22.377 29.0607C22.0781 29.342 21.6727 29.5 21.25 29.5H6.375C5.95231 29.5 5.54693 29.342 5.24805 29.0607C4.94916 28.7794 4.78125 28.3978 4.78125 28ZM4.78125 36C4.78125 35.6022 4.94916 35.2206 5.24805 34.9393C5.54693 34.658 5.95231 34.5 6.375 34.5H21.25C21.6727 34.5 22.0781 34.658 22.377 34.9393C22.6758 35.2206 22.8438 35.6022 22.8438 36C22.8438 36.3978 22.6758 36.7794 22.377 37.0607C22.0781 37.342 21.6727 37.5 21.25 37.5H6.375C5.95231 37.5 5.54693 37.342 5.24805 37.0607C4.94916 36.7794 4.78125 36.3978 4.78125 36Z" fill="#0FA958"/>
</svg>
