<svg xmlns="http://www.w3.org/2000/svg" version="1.1" xmlns:xlink="http://www.w3.org/1999/xlink" width="512" height="512" x="0" y="0" viewBox="0 0 32 32" style="enable-background:new 0 0 512 512" xml:space="preserve"><g><g fill="#231f20"><path d="M14 11.29c-.55 0-1-.45-1-1V8.57c0-.55.45-1 1-1s1 .45 1 1v1.71c0 .56-.45 1.01-1 1.01zM14 28.43c-.55 0-1-.45-1-1v-1.71c0-.55.45-1 1-1s1 .45 1 1v1.71c0 .55-.45 1-1 1zM23.43 19h-1.71c-.55 0-1-.45-1-1s.45-1 1-1h1.71c.55 0 1 .45 1 1s-.45 1-1 1zM6.29 19H4.57c-.55 0-1-.45-1-1s.45-1 1-1h1.71c.55 0 1 .45 1 1s-.44 1-.99 1z" fill="#0FA958" opacity="1" data-original="#231f20"></path><path d="M14 11.29c-.55 0-1-.45-1-1V8.57c0-.55.45-1 1-1s1 .45 1 1v1.71c0 .56-.45 1.01-1 1.01zM14 28.43c-.55 0-1-.45-1-1v-1.71c0-.55.45-1 1-1s1 .45 1 1v1.71c0 .55-.45 1-1 1zM23.43 19h-1.71c-.55 0-1-.45-1-1s.45-1 1-1h1.71c.55 0 1 .45 1 1s-.45 1-1 1zM6.29 19H4.57c-.55 0-1-.45-1-1s.45-1 1-1h1.71c.55 0 1 .45 1 1s-.44 1-.99 1zM13 21c-.3 0-.6-.14-.8-.4l-3-4c-.33-.44-.24-1.07.2-1.4s1.07-.24 1.4.2l2.42 3.22 16.2-11.44a.994.994 0 0 1 1.39.24c.32.45.21 1.08-.24 1.39l-17 12A.93.93 0 0 1 13 21z" fill="#0FA958" opacity="1" data-original="#231f20"></path><path d="M24.39 14.41c.39 1.13.61 2.33.61 3.59 0 6.07-4.93 11-11 11S3 24.07 3 18 7.93 7 14 7c3.37 0 6.38 1.52 8.4 3.92l1.63-1.15c-1.56-1.9-3.64-3.35-6.03-4.13V2c0-.55-.45-1-1-1h-6c-.55 0-1 .45-1 1v3.64C4.78 7.33 1 12.23 1 18c0 7.17 5.83 13 13 13s13-5.83 13-13c0-1.69-.33-3.3-.92-4.78zM12 3h4v2h-4z" fill="#0FA958" opacity="1" data-original="#231f20"></path></g></g></svg>