<svg xmlns="http://www.w3.org/2000/svg" version="1.1" xmlns:xlink="http://www.w3.org/1999/xlink" width="512" height="512" x="0" y="0" viewBox="0 0 512 512" style="enable-background:new 0 0 512 512" xml:space="preserve"><g><path d="M207.125 422.641C124.2 404.865 64 330.3 64 245.333 64 145.344 145.344 64 245.333 64c84.969 0 159.532 60.2 177.3 143.13a21.338 21.338 0 0 0 41.73-8.937C442.4 95.714 350.281 21.333 245.333 21.333c-123.51 0-224 100.485-224 224 0 104.948 74.375 197.063 176.855 219.026a21.332 21.332 0 1 0 8.937-41.718z" fill="#0FA958" opacity="1" data-original="#000000"></path><path d="M224 117.333V224h-64a21.334 21.334 0 0 0 0 42.667h85.333a21.335 21.335 0 0 0 21.334-21.334v-128a21.334 21.334 0 0 0-42.667 0zM373.333 234.667c-76.458 0-138.666 62.2-138.666 138.666S296.875 512 373.333 512 512 449.8 512 373.333s-62.208-138.666-138.667-138.666zm0 234.666a96 96 0 1 1 96-96 96.108 96.108 0 0 1-96 96z" fill="#0FA958" opacity="1" data-original="#000000"></path><path d="M373.333 298.667A21.334 21.334 0 0 0 352 320v53.333a21.334 21.334 0 1 0 42.667 0V320a21.334 21.334 0 0 0-21.334-21.333z" fill="#0FA958" opacity="1" data-original="#000000"></path><circle cx="373.333" cy="426.667" r="21.333" fill="#0FA958" opacity="1" data-original="#000000"></circle></g></svg>