<?xml version="1.0" encoding="UTF-8"?>
<svg xmlns="http://www.w3.org/2000/svg" viewBox="0 0 64 64" width="512" height="512"><g id="_24-Team_Management" data-name="24-Team Management"><path d="M7,29.49121V24.50879A3.0132,3.0132,0,0,1,9.17578,21.624l2.76563-.79a20.95379,20.95379,0,0,1,1.51171-3.66308l-1.39355-2.50879a3.01482,3.01482,0,0,1,.5-3.57813L16.084,7.56055a3.01377,3.01377,0,0,1,3.57813-.501L22.1709,8.45312A20.95379,20.95379,0,0,1,25.834,6.94141l.79-2.76563A3.0132,3.0132,0,0,1,29.50879,2h4.98242A3.0132,3.0132,0,0,1,37.376,4.17578l.79,2.76563A20.95379,20.95379,0,0,1,41.8291,8.45312l2.50879-1.39355a3.01668,3.01668,0,0,1,3.57813.5L51.43945,11.084a3.01357,3.01357,0,0,1,.501,3.57813L50.54688,17.1709A20.95379,20.95379,0,0,1,52.05859,20.834l2.76563.79A3.0132,3.0132,0,0,1,57,24.50879v4.98242A3.01232,3.01232,0,0,1,54.82422,32.376l-2.52149.7207a1.02894,1.02894,0,0,1-.27539.03809,1.00012,1.00012,0,0,1-.27343-1.96192l2.52148-.7207A1.00225,1.00225,0,0,0,55,29.49121V24.50879a1.00225,1.00225,0,0,0-.72461-.96094l-3.29687-.94238a1.00307,1.00307,0,0,1-.68946-.69434,18.80143,18.80143,0,0,0-1.75488-4.25,1.00036,1.00036,0,0,1-.00391-.97851l1.66211-2.99121a1.00451,1.00451,0,0,0-.168-1.19336L46.502,8.97461a1.007,1.007,0,0,0-1.19336-.167l-2.99121,1.66211a.99543.99543,0,0,1-.97851-.00391,18.80143,18.80143,0,0,0-4.25-1.75488,1.00307,1.00307,0,0,1-.69434-.68946l-.94238-3.29687A1.00225,1.00225,0,0,0,34.49121,4H29.50879a1.00225,1.00225,0,0,0-.96094.72461l-.94238,3.29687a1.00307,1.00307,0,0,1-.69434.68946,18.80143,18.80143,0,0,0-4.25,1.75488.99541.99541,0,0,1-.97851.00391L18.69141,8.80762a1.0008,1.0008,0,0,0-1.19336.168L13.97461,12.498a1.00576,1.00576,0,0,0-.167,1.19336l1.66211,2.99121a1.00036,1.00036,0,0,1-.00391.97851,18.80143,18.80143,0,0,0-1.75488,4.25,1.00307,1.00307,0,0,1-.68946.69434l-3.29687.94238A1.00225,1.00225,0,0,0,9,24.50879v4.98242a1.00225,1.00225,0,0,0,.72461.96094l2.52148.7207a1.00029,1.00029,0,0,1-.54882,1.92383L9.17578,32.376A3.01232,3.01232,0,0,1,7,29.49121ZM8,54a.99943.99943,0,0,0-1,1v6a1,1,0,0,0,2,0V55A.99943.99943,0,0,0,8,54Zm48,0a.99943.99943,0,0,0-1,1v6a1,1,0,0,0,2,0V55A.99943.99943,0,0,0,56,54ZM41.50293,34.38477a1.002,1.002,0,0,0,1.38477-.291,13,13,0,1,0-21.7754,0A1.00057,1.00057,0,1,0,22.78809,33a11,11,0,1,1,18.42382,0A1.00168,1.00168,0,0,0,41.50293,34.38477ZM62,53v8a1,1,0,0,1-2,0V53a5.00588,5.00588,0,0,0-5-5H46a4.92749,4.92749,0,0,0-.49261.04779A8.94363,8.94363,0,0,1,47,53v8a1,1,0,0,1-2,0V53a7.00848,7.00848,0,0,0-7-7H26a7.00848,7.00848,0,0,0-7,7v8a1,1,0,0,1-2,0V53a8.94363,8.94363,0,0,1,1.49261-4.95221A4.92749,4.92749,0,0,0,18,48H9a5.00588,5.00588,0,0,0-5,5v8a1,1,0,0,1-2,0V53a7.00462,7.00462,0,0,1,6.82849-6.99133,6.5,6.5,0,1,1,9.34345-.00043,6.93978,6.93978,0,0,1,1.84173.29A8.953,8.953,0,0,1,26,44h.72626a8,8,0,1,1,10.54748,0H38a8.953,8.953,0,0,1,5.98633,2.29822,6.93978,6.93978,0,0,1,1.84173-.29,6.5,6.5,0,1,1,9.34345.00043A7.00462,7.00462,0,0,1,62,53ZM9,41.5A4.5,4.5,0,1,0,13.5,37,4.50491,4.50491,0,0,0,9,41.5ZM32,44a6,6,0,1,0-6-6A6.00657,6.00657,0,0,0,32,44Zm14-2.5A4.5,4.5,0,1,0,50.5,37,4.50491,4.50491,0,0,0,46,41.5ZM23,54a.99943.99943,0,0,0-1,1v6a1,1,0,0,0,2,0V55A.99943.99943,0,0,0,23,54Zm18,0a.99943.99943,0,0,0-1,1v6a1,1,0,0,0,2,0V55A.99943.99943,0,0,0,41,54Z"/></g></svg>
