<?xml version="1.0" encoding="UTF-8"?>
<svg xmlns="http://www.w3.org/2000/svg" xmlns:xlink="http://www.w3.org/1999/xlink" version="1.1" id="Capa_1" x="0px" y="0px" viewBox="0 0 512 512" style="enable-background:new 0 0 512 512;" xml:space="preserve" width="512" height="512">
<g>
	
		<circle style="fill:none;stroke:#000000;stroke-width:15;stroke-linecap:round;stroke-linejoin:round;stroke-miterlimit:10;" cx="256.021" cy="54.5" r="17.5"/>
	<path style="fill:none;stroke:#000000;stroke-width:15;stroke-linecap:round;stroke-linejoin:round;stroke-miterlimit:10;" d="&#10;&#9;&#9;M226.021,129.173v-13.684c0-8.284,6.716-15,15-15h30c8.284,0,15,6.716,15,15v13.684"/>
	<path style="fill:none;stroke:#000000;stroke-width:15;stroke-linecap:round;stroke-linejoin:round;stroke-miterlimit:10;" d="&#10;&#9;&#9;M321,70.825c0.014,0.556,0.021,1.115,0.021,1.675c0,35.899-29.101,65-65,65s-65-29.101-65-65s29.102-65,65-65&#10;&#9;&#9;c23.041,0,43.283,11.989,54.826,30.069"/>
	
		<circle style="fill:none;stroke:#000000;stroke-width:15;stroke-linecap:round;stroke-linejoin:round;stroke-miterlimit:10;" cx="97.095" cy="164.232" r="65"/>
	
		<circle style="fill:none;stroke:#000000;stroke-width:15;stroke-linecap:round;stroke-linejoin:round;stroke-miterlimit:10;" cx="97.095" cy="146.232" r="17.5"/>
	<path style="fill:none;stroke:#000000;stroke-width:15;stroke-linecap:round;stroke-linejoin:round;stroke-miterlimit:10;" d="&#10;&#9;&#9;M67.095,220.905l0-13.684c0-8.284,6.716-15,15-15l30,0c8.284,0,15,6.716,15,15l0,13.684"/>
	<path style="fill:none;stroke:#000000;stroke-width:15;stroke-linecap:round;stroke-linejoin:round;stroke-miterlimit:10;" d="&#10;&#9;&#9;M67.747,289.708c8.811-4.462,18.775-6.976,29.327-6.976c35.899,0,65,29.102,65,65s-29.102,65-65,65c-35.899,0-65-29.102-65-65&#10;&#9;&#9;c0-12.673,3.627-24.5,9.9-34.498"/>
	
		<circle style="fill:none;stroke:#000000;stroke-width:15;stroke-linecap:round;stroke-linejoin:round;stroke-miterlimit:10;" cx="97.074" cy="329.732" r="17.5"/>
	<path style="fill:none;stroke:#000000;stroke-width:15;stroke-linecap:round;stroke-linejoin:round;stroke-miterlimit:10;" d="&#10;&#9;&#9;M67.074,404.405l0-13.684c0-8.284,6.716-15,15-15l30,0c8.284,0,15,6.716,15,15l0,13.684"/>
	<path style="fill:none;stroke:#000000;stroke-width:15;stroke-linecap:round;stroke-linejoin:round;stroke-miterlimit:10;" d="&#10;&#9;&#9;M319.775,452.015c-5.834,29.911-32.179,52.485-63.796,52.485c-35.899,0-65-29.102-65-65s29.101-65,65-65&#10;&#9;&#9;c28.242,0,52.277,18.011,61.245,43.174"/>
	
		<circle style="fill:none;stroke:#000000;stroke-width:15;stroke-linecap:round;stroke-linejoin:round;stroke-miterlimit:10;" cx="255.979" cy="421.5" r="17.5"/>
	<path style="fill:none;stroke:#000000;stroke-width:15;stroke-linecap:round;stroke-linejoin:round;stroke-miterlimit:10;" d="&#10;&#9;&#9;M225.979,496.173v-13.684c0-8.284,6.716-15,15-15h30c8.284,0,15,6.716,15,15v13.684"/>
	
		<circle style="fill:none;stroke:#000000;stroke-width:15;stroke-linecap:round;stroke-linejoin:round;stroke-miterlimit:10;" cx="414.905" cy="347.768" r="65"/>
	
		<circle style="fill:none;stroke:#000000;stroke-width:15;stroke-linecap:round;stroke-linejoin:round;stroke-miterlimit:10;" cx="414.905" cy="329.768" r="17.5"/>
	<path style="fill:none;stroke:#000000;stroke-width:15;stroke-linecap:round;stroke-linejoin:round;stroke-miterlimit:10;" d="&#10;&#9;&#9;M384.905,404.442l0-13.684c0-8.284,6.716-15,15-15l30,0c8.284,0,15,6.716,15,15l0,13.684"/>
	
		<circle style="fill:none;stroke:#000000;stroke-width:15;stroke-linecap:round;stroke-linejoin:round;stroke-miterlimit:10;" cx="414.926" cy="164.268" r="65"/>
	
		<circle style="fill:none;stroke:#000000;stroke-width:15;stroke-linecap:round;stroke-linejoin:round;stroke-miterlimit:10;" cx="414.926" cy="146.268" r="17.5"/>
	<path style="fill:none;stroke:#000000;stroke-width:15;stroke-linecap:round;stroke-linejoin:round;stroke-miterlimit:10;" d="&#10;&#9;&#9;M384.926,220.942l0-13.684c0-8.284,6.716-15,15-15l30,0c8.284,0,15,6.716,15,15l0,13.684"/>
	<path style="fill:none;stroke:#000000;stroke-width:15;stroke-linecap:round;stroke-linejoin:round;stroke-miterlimit:10;" d="&#10;&#9;&#9;M329.464,256c0-5.406-0.603-10.668-1.713-15.741c-0.093-0.424,0.096-0.857,0.472-1.074l11.912-6.877&#10;&#9;&#9;c0.478-0.276,0.642-0.888,0.366-1.366l-20.549-35.593c-0.276-0.478-0.888-0.642-1.366-0.366l-11.919,6.882&#10;&#9;&#9;c-0.376,0.217-0.846,0.163-1.167-0.13c-7.749-7.073-17.011-12.513-27.253-15.764c-0.414-0.131-0.696-0.511-0.696-0.945v-13.734&#10;&#9;&#9;c0-0.552-0.448-1-1-1h-41.099c-0.552,0-1,0.448-1,1v13.734c0,0.434-0.282,0.814-0.696,0.945&#10;&#9;&#9;c-10.242,3.251-19.504,8.691-27.253,15.764c-0.321,0.293-0.791,0.347-1.167,0.13l-11.919-6.882&#10;&#9;&#9;c-0.478-0.276-1.09-0.112-1.366,0.366L171.5,230.942c-0.276,0.478-0.112,1.09,0.366,1.366l11.912,6.877&#10;&#9;&#9;c0.376,0.217,0.564,0.65,0.472,1.074c-1.11,5.073-1.713,10.335-1.713,15.741c0,5.406,0.603,10.668,1.713,15.741&#10;&#9;&#9;c0.093,0.424-0.096,0.857-0.472,1.074l-11.912,6.877c-0.478,0.276-0.642,0.888-0.366,1.366l20.549,35.593&#10;&#9;&#9;c0.276,0.478,0.888,0.642,1.366,0.366l11.919-6.882c0.376-0.217,0.846-0.163,1.167,0.13c7.749,7.073,17.011,12.513,27.253,15.764&#10;&#9;&#9;c0.414,0.131,0.696,0.511,0.696,0.945v13.734c0,0.552,0.448,1,1,1h41.099c0.552,0,1-0.448,1-1v-13.734&#10;&#9;&#9;c0-0.434,0.282-0.814,0.696-0.945c10.242-3.251,19.504-8.691,27.253-15.764c0.321-0.293,0.791-0.347,1.167-0.13l11.919,6.882&#10;&#9;&#9;c0.478,0.276,1.09,0.112,1.366-0.366l20.549-35.593c0.276-0.478,0.112-1.09-0.366-1.366l-11.912-6.877&#10;&#9;&#9;c-0.376-0.217-0.564-0.65-0.472-1.074C328.861,266.668,329.464,261.406,329.464,256z"/>
	<path style="fill:none;stroke:#000000;stroke-width:15;stroke-linecap:round;stroke-linejoin:round;stroke-miterlimit:10;" d="&#10;&#9;&#9;M295.61,261.61c0.257-1.833,0.39-3.706,0.39-5.61c0-22.091-17.909-40-40-40s-40,17.909-40,40s17.909,40,40,40&#10;&#9;&#9;c7.622,0,14.746-2.132,20.808-5.832"/>
</g>















</svg>
